<svg width="114" height="48" viewBox="0 0 114 48" fill="none" xmlns="http://www.w3.org/2000/svg">
<path fill-rule="evenodd" clip-rule="evenodd" d="M2.10742 36.0342C10.9217 31.8468 23.8912 28.5296 20.1621 43.7422C20.003 44.3902 17.1592 47.7381 11.7773 47.9317C8.81088 48.0386 5.85881 47.9983 3.26367 47.962H3.20215C1.43313 47.9377 0 46.5444 0 44.834V39.3868C0.000161902 37.971 0.7922 36.6595 2.10742 36.0342ZM29.4844 43.7422C25.7543 28.5297 38.7238 31.8469 47.5391 36.0342C48.8532 36.6595 49.6453 37.971 49.6455 39.3868V44.834C49.6455 46.5445 48.2124 47.9377 46.4434 47.962H46.3818C43.7877 47.9983 40.8347 48.0386 37.8682 47.9317C32.4862 47.7381 29.6434 44.3902 29.4844 43.7422ZM62.4385 40.2598C63.062 40.2598 63.6115 40.3665 64.0859 40.5782C64.5678 40.7839 64.9482 41.1026 65.2246 41.5352C65.5083 41.9598 65.6608 42.5091 65.6816 43.1797C65.6889 43.3923 65.6914 43.5782 65.6914 43.7354C65.6987 43.8866 65.6987 44.0401 65.6914 44.1983C65.6914 44.3484 65.6889 44.5308 65.6816 44.7422C65.6608 45.421 65.5108 45.9766 65.2344 46.4083C64.958 46.8398 64.5829 47.1586 64.1084 47.3643C63.6328 47.563 63.0768 47.6631 62.4385 47.6631C61.8785 47.6631 61.3682 47.5878 60.9072 47.4366C60.4535 47.2793 60.0835 47.0534 59.8008 46.7579C59.5172 46.4635 59.3508 46.1032 59.3018 45.6788C59.2945 45.6174 59.312 45.5658 59.3535 45.5245C59.4035 45.4832 59.4599 45.463 59.5244 45.4629H60.9072C60.9925 45.463 61.056 45.4758 61.0977 45.504C61.1404 45.5312 61.1838 45.5789 61.2266 45.6475C61.2975 45.8056 61.4249 45.9354 61.6094 46.0381C61.8002 46.1409 62.0629 46.1915 62.3955 46.1915C62.8075 46.1915 63.1261 46.0731 63.3535 45.8331C63.5871 45.5931 63.7031 45.254 63.7031 44.8145V44.6495H61.6406C61.5635 44.6495 61.4993 44.6228 61.4492 44.5684C61.3992 44.5129 61.375 44.4478 61.375 44.3721V43.5508C61.375 43.4752 61.3992 43.409 61.4492 43.3545C61.4993 43.3001 61.5635 43.2725 61.6406 43.2725H63.7031V43.128C63.7031 42.6489 63.5896 42.299 63.3633 42.0801C63.1359 41.8542 62.8138 41.7403 62.3955 41.7403C62.063 41.7403 61.8002 41.7955 61.6094 41.9053C61.4247 42.0143 61.3079 42.1447 61.2578 42.296C61.215 42.3645 61.1761 42.4122 61.1406 42.4405C61.1051 42.4676 61.0443 42.4805 60.96 42.4805H59.5674C59.5028 42.4805 59.4465 42.4603 59.3965 42.419C59.3476 42.3717 59.3259 42.3163 59.333 42.2549C59.3904 41.8092 59.5601 41.4381 59.8428 41.1436C60.1265 40.8492 60.492 40.6296 60.9395 40.4854C61.3859 40.3352 61.8857 40.2598 62.4385 40.2598ZM76.8115 40.2598C77.4569 40.2599 78.0085 40.3665 78.4902 40.5782C78.9793 40.7909 79.3622 41.1098 79.6396 41.5352C79.915 41.9527 80.065 42.4707 80.0869 43.0879C80.1005 43.3893 80.1074 43.6881 80.1074 43.9825C80.1074 44.2767 80.1005 44.571 80.0869 44.8663C80.0577 45.4895 79.9088 46.0102 79.6396 46.4288C79.3695 46.8401 78.9944 47.1488 78.5127 47.3545C78.0309 47.5603 77.4633 47.6631 76.8115 47.6631C76.1587 47.6631 75.5922 47.5602 75.1104 47.3545C74.6285 47.1488 74.2515 46.8402 73.9824 46.4288C73.7133 46.0102 73.5643 45.4895 73.5361 44.8663C73.5288 44.571 73.5254 44.2767 73.5254 43.9825C73.5254 43.6881 73.5288 43.3894 73.5361 43.0879C73.5643 42.4707 73.7133 41.9527 73.9824 41.5352C74.2588 41.1097 74.6373 40.791 75.1201 40.5782C75.602 40.3664 76.1658 40.2598 76.8115 40.2598ZM68.2705 40.3624C68.3484 40.3624 68.412 40.3865 68.4609 40.4346C68.5109 40.4819 68.536 40.5438 68.5361 40.6192V43.0977H69.1836L70.7578 40.5577C70.7933 40.5033 70.8437 40.4591 70.9072 40.4239C70.9708 40.3836 71.0522 40.3624 71.1523 40.3624H72.6826C72.7544 40.3624 72.8108 40.3864 72.8525 40.4346C72.8953 40.4749 72.917 40.5238 72.917 40.5782C72.917 40.6195 72.9022 40.6609 72.874 40.7022L70.8965 43.8282L73.0664 47.21C73.0873 47.2372 73.0976 47.2749 73.0977 47.3233C73.0977 47.3919 73.0725 47.4507 73.0234 47.4981C72.9807 47.5393 72.9233 47.5606 72.8525 47.5606H71.2793C71.1658 47.5606 71.0817 47.5357 71.0244 47.4874C70.9754 47.44 70.9354 47.3986 70.9072 47.3643L69.2588 44.7422H68.5361V47.3028C68.5361 47.3774 68.511 47.44 68.4609 47.4874C68.412 47.5357 68.3486 47.5606 68.2705 47.5606H66.8984C66.8203 47.5606 66.756 47.5357 66.707 47.4874C66.657 47.44 66.6328 47.3774 66.6328 47.3028V40.6192C66.6329 40.5438 66.6571 40.4819 66.707 40.4346C66.756 40.3865 66.8205 40.3624 66.8984 40.3624H68.2705ZM91.9375 40.3624C92.0154 40.3624 92.0789 40.3865 92.1289 40.4346C92.1789 40.4829 92.203 40.5438 92.2031 40.6192V47.3028C92.2031 47.3774 92.1779 47.44 92.1289 47.4874C92.0799 47.5347 92.0156 47.5606 91.9375 47.5606H90.5654C90.4873 47.5606 90.424 47.5357 90.375 47.4874C90.3249 47.44 90.2998 47.3774 90.2998 47.3028V42.0069H87.6729V47.3028C87.6729 47.3774 87.6477 47.44 87.5986 47.4874C87.5496 47.5357 87.4854 47.5606 87.4072 47.5606H86.0352C85.957 47.5606 85.8937 47.5357 85.8447 47.4874C85.7947 47.44 85.7695 47.3774 85.7695 47.3028V40.6192C85.7696 40.5438 85.7948 40.4819 85.8447 40.4346C85.8937 40.3865 85.9572 40.3624 86.0352 40.3624H91.9375ZM97.2236 40.3624C97.3446 40.3624 97.4364 40.3937 97.5 40.4551C97.5708 40.5095 97.6177 40.575 97.6387 40.6504L100.127 47.252C100.141 47.2792 100.148 47.3107 100.148 47.3438C100.148 47.3992 100.123 47.4508 100.073 47.4981C100.032 47.5393 99.9785 47.5606 99.915 47.5606H98.6064C98.5003 47.5605 98.4186 47.5357 98.3613 47.4874C98.3116 47.4332 98.2802 47.385 98.2656 47.3438L97.8516 46.296H95.0127L94.6074 47.3438C94.5938 47.385 94.5615 47.4331 94.5127 47.4874C94.4626 47.5358 94.3778 47.5606 94.2568 47.5606H92.9492C92.8929 47.5606 92.8391 47.5395 92.7891 47.4981C92.7464 47.4508 92.7257 47.3991 92.7256 47.3438C92.7256 47.3106 92.7291 47.2792 92.7363 47.252L95.2354 40.6504C95.2562 40.575 95.2998 40.5095 95.3633 40.4551C95.4341 40.3938 95.5298 40.3624 95.6494 40.3624H97.2236ZM103.911 40.3624C104.499 40.3624 105.01 40.4524 105.442 40.6299C105.881 40.8014 106.222 41.0623 106.463 41.4112C106.711 41.7611 106.835 42.203 106.835 42.7374C106.835 43.2719 106.711 43.7011 106.463 44.044C106.222 44.3868 105.881 44.6394 105.442 44.8038C105.01 44.9692 104.499 45.0508 103.911 45.0508H102.646V47.3028C102.646 47.3773 102.617 47.44 102.561 47.4874C102.512 47.5358 102.446 47.5606 102.368 47.5606H100.933C100.855 47.5605 100.792 47.5357 100.742 47.4874C100.692 47.44 100.668 47.3773 100.668 47.3028V40.6192C100.668 40.5438 100.692 40.4819 100.742 40.4346C100.792 40.3865 100.855 40.3624 100.933 40.3624H103.911ZM109.173 40.3624C109.251 40.3624 109.314 40.3865 109.363 40.4346C109.413 40.4819 109.438 40.5438 109.438 40.6192V43.0977H110.087L111.66 40.5577C111.696 40.5033 111.746 40.4591 111.81 40.4239C111.873 40.3836 111.955 40.3624 112.055 40.3624H113.586C113.657 40.3624 113.713 40.3864 113.756 40.4346C113.798 40.4749 113.819 40.5238 113.819 40.5782C113.819 40.6195 113.805 40.6609 113.776 40.7022L111.799 43.8282L113.969 47.21C113.99 47.2372 114 47.2749 114 47.3233C114 47.3919 113.975 47.4507 113.926 47.4981C113.883 47.5393 113.827 47.5606 113.756 47.5606H112.182C112.068 47.5606 111.984 47.5357 111.927 47.4874C111.878 47.44 111.838 47.3986 111.81 47.3643L110.161 44.7422H109.438V47.3028C109.438 47.3774 109.413 47.44 109.363 47.4874C109.314 47.5357 109.251 47.5605 109.173 47.5606H107.801C107.723 47.5606 107.659 47.5357 107.609 47.4874C107.559 47.439 107.535 47.3774 107.535 47.3028V40.6192C107.535 40.5438 107.56 40.4819 107.609 40.4346C107.658 40.3875 107.723 40.3624 107.801 40.3624H109.173ZM76.8115 41.7403C76.5633 41.7403 76.353 41.788 76.1621 41.8838C75.9702 41.9797 75.8178 42.1312 75.7041 42.337C75.5915 42.5356 75.5283 42.7965 75.5137 43.1192C75.5064 43.4065 75.5029 43.6841 75.5029 43.9512C75.5029 44.2183 75.5064 44.5025 75.5137 44.8038C75.5345 45.2838 75.6629 45.6337 75.8965 45.8526C76.1301 46.0725 76.436 46.1817 76.8115 46.1817C77.1869 46.1816 77.491 46.0723 77.7256 45.8526C77.9665 45.6337 78.0939 45.2838 78.1074 44.8038C78.122 44.5025 78.1299 44.2183 78.1299 43.9512C78.1299 43.6841 78.122 43.4065 78.1074 43.1192C78.0939 42.7965 78.0307 42.5357 77.917 42.337C77.8106 42.1313 77.6616 41.9796 77.4707 41.8838C77.2789 41.7881 77.0596 41.7403 76.8115 41.7403ZM84.4766 43.7354C84.5548 43.7354 84.6189 43.7593 84.668 43.8067C84.7169 43.8541 84.7432 43.9167 84.7432 43.9922V44.9581C84.7432 45.0336 84.7179 45.0952 84.668 45.1436C84.6179 45.192 84.5548 45.2159 84.4766 45.2159H81.1484C81.0703 45.2159 81.007 45.1909 80.958 45.1436C80.909 45.0962 80.8828 45.0337 80.8828 44.9581V43.9922C80.8828 43.9166 80.9079 43.8551 80.958 43.8067C81.008 43.7584 81.0703 43.7354 81.1484 43.7354H84.4766ZM95.4482 44.8145H97.4258L96.4268 42.0997L95.4482 44.8145ZM102.613 43.6319H103.857C104.162 43.6319 104.404 43.5566 104.581 43.4063C104.766 43.2551 104.857 43.0261 104.857 42.7178C104.857 42.4576 104.778 42.2372 104.623 42.0587C104.467 41.8814 104.212 41.793 103.857 41.793H102.613V43.6319ZM64.7324 20.0762C64.9085 20.0763 65.0603 20.1378 65.1875 20.2618C65.3158 20.3858 65.3809 20.5327 65.3809 20.7032V25.5801H69.2725V20.7032C69.2725 20.5328 69.3366 20.3858 69.4648 20.2618C69.5931 20.1377 69.7446 20.0762 69.9209 20.0762H74.6289C74.8052 20.0762 74.9576 20.1377 75.0859 20.2618C75.2131 20.3858 75.2773 20.5328 75.2773 20.7032V35.7071C75.2773 35.8774 75.2131 36.0235 75.0859 36.1475C74.9576 36.2716 74.8052 36.334 74.6289 36.334H69.9209C69.7446 36.334 69.5931 36.2716 69.4648 36.1475C69.3366 36.0235 69.2725 35.8775 69.2725 35.7071V30.6895H65.3809V35.7071C65.3809 35.8775 65.3158 36.0235 65.1875 36.1475C65.0603 36.2714 64.9085 36.3339 64.7324 36.334H60.0234C59.8472 36.334 59.6946 36.2799 59.5674 36.171C59.4392 36.0479 59.375 35.8926 59.375 35.7071V20.7032C59.375 20.5329 59.4393 20.3858 59.5674 20.2618C59.6946 20.1377 59.8472 20.0762 60.0234 20.0762H64.7324ZM83.2881 20.0762C83.4643 20.0763 83.6169 20.1378 83.7451 20.2618C83.8732 20.3857 83.9365 20.5329 83.9365 20.7032V27.7403L88.957 20.6104C89.0697 20.44 89.2056 20.3077 89.3662 20.2149C89.5257 20.1223 89.7184 20.0763 89.9424 20.0762H94.0986C94.2749 20.0762 94.4264 20.1377 94.5547 20.2618C94.6828 20.3858 94.7471 20.5329 94.7471 20.7032V35.7071C94.7471 35.8774 94.6828 36.0235 94.5547 36.1475C94.4264 36.2716 94.2749 36.334 94.0986 36.334H89.3896C89.2136 36.334 89.0618 36.2714 88.9336 36.1475C88.8063 36.0235 88.7412 35.8775 88.7412 35.7071V29.1797L83.7207 35.7999C83.6248 35.9389 83.5051 36.0631 83.3613 36.171C83.2164 36.2798 83.0084 36.334 82.7363 36.334H78.5801C78.4039 36.334 78.2513 36.2715 78.123 36.1475C77.995 36.0235 77.9316 35.8774 77.9316 35.7071V20.7032C77.9316 20.5329 77.995 20.3858 78.123 20.2618C78.2513 20.1378 78.4039 20.0763 78.5801 20.0762H83.2881ZM102.735 20.0762C102.912 20.0762 103.064 20.1377 103.192 20.2618C103.321 20.3858 103.385 20.5328 103.385 20.7032V25.5801H103.77L106.699 20.587C106.78 20.463 106.892 20.3472 107.036 20.2383C107.196 20.1304 107.405 20.0762 107.66 20.0762H112.97C113.114 20.0763 113.233 20.1305 113.329 20.2383C113.442 20.3311 113.498 20.4469 113.498 20.587C113.498 20.6798 113.475 20.7652 113.427 20.8428L109.102 27.8565L113.834 35.5674C113.882 35.629 113.906 35.7144 113.906 35.8233C113.906 35.9624 113.85 36.0865 113.738 36.1944C113.642 36.2872 113.522 36.334 113.377 36.334H107.901C107.581 36.334 107.348 36.2641 107.204 36.1251C107.06 35.9708 106.964 35.8614 106.915 35.7999L103.961 30.6895H103.385V35.7071C103.385 35.8775 103.321 36.0235 103.192 36.1475C103.064 36.2716 102.912 36.334 102.735 36.334H98.0283C97.8521 36.334 97.6996 36.2798 97.5713 36.171C97.443 36.0479 97.3789 35.8927 97.3789 35.7071V20.7032C97.3789 20.5328 97.443 20.3858 97.5713 20.2618C97.6996 20.1377 97.852 20.0762 98.0283 20.0762H102.735ZM0 13.8243C0 11.4573 13.8918 25.0149 12.2812 28.0274C10.6701 31.0398 0 34.9128 0 31.6846V13.8243ZM37.3643 28.0274C35.7537 25.0149 49.6455 11.4573 49.6455 13.8243V31.6846C49.6455 34.9128 38.9754 31.0398 37.3643 28.0274ZM9.44727 0.489316C10.4591 -0.293304 14.1033 0.0977142 16.1279 0.0977142C21.0198 0.0985148 24.0225 12.6142 24.0225 16.7208C24.0224 20.8274 22.6052 26.89 19.9736 27.085C13.763 27.5469 6.00488 13.7694 6.00488 9.09381C6.00492 3.03192 8.24245 1.41919 9.44727 0.489316ZM33.5195 0.0977142C35.5432 0.0976671 39.1864 -0.293257 40.1992 0.489316C41.403 1.41918 43.6406 3.03177 43.6406 9.09381C43.6406 13.7694 35.8825 27.5469 29.6719 27.085C27.0404 26.8899 25.6241 20.8273 25.624 16.7208C25.624 12.614 28.6274 0.0977142 33.5195 0.0977142ZM74.6289 1.10748C74.8052 1.10748 74.9576 1.16995 75.0859 1.294C75.2131 1.41797 75.2773 1.56413 75.2773 1.73443V16.7383C75.2773 16.9088 75.2132 17.0567 75.0859 17.1807C74.9577 17.3047 74.8051 17.3663 74.6289 17.3663H69.9209C69.7448 17.3663 69.5931 17.3046 69.4648 17.1807C69.3365 17.0567 69.2725 16.9088 69.2725 16.7383V6.21783H65.3809V16.7383C65.3809 16.9088 65.3158 17.0567 65.1875 17.1807C65.0604 17.3044 64.9084 17.3662 64.7324 17.3663H60.0234C59.8472 17.3663 59.6946 17.3111 59.5674 17.2032C59.4393 17.0792 59.375 16.9248 59.375 16.7383V1.73443C59.3751 1.56417 59.4392 1.41796 59.5674 1.294C59.6946 1.16995 59.8472 1.10748 60.0234 1.10748H74.6289ZM83.2881 1.10748C83.4643 1.10754 83.6169 1.17001 83.7451 1.294C83.8732 1.41794 83.9364 1.56421 83.9365 1.73443V8.77252L88.957 1.64166C89.0697 1.4713 89.2056 1.33988 89.3662 1.24713C89.5256 1.15354 89.7185 1.10754 89.9424 1.10748H94.0986C94.2749 1.10749 94.4264 1.16997 94.5547 1.294C94.6828 1.41795 94.747 1.56418 94.7471 1.73443V16.7383C94.7471 16.9088 94.683 17.0567 94.5547 17.1807C94.4264 17.3047 94.2749 17.3663 94.0986 17.3663H89.3896C89.2137 17.3662 89.0617 17.3044 88.9336 17.1807C88.8063 17.0567 88.7412 16.9088 88.7412 16.7383V10.212L83.7207 16.8311C83.6248 16.9711 83.5051 17.0944 83.3613 17.2032C83.2164 17.3111 83.0084 17.3662 82.7363 17.3663H78.5801C78.4039 17.3662 78.2513 17.3047 78.123 17.1807C77.9948 17.0567 77.9316 16.9088 77.9316 16.7383V1.73443C77.9317 1.5642 77.9949 1.41794 78.123 1.294C78.2513 1.17 78.4039 1.10753 78.5801 1.10748H83.2881ZM102.735 1.10748C102.912 1.10748 103.064 1.16995 103.192 1.294C103.321 1.41798 103.385 1.56412 103.385 1.73443V6.61236H103.77L106.699 1.6192C106.78 1.49515 106.892 1.37848 107.036 1.27057C107.196 1.16167 107.405 1.10748 107.66 1.10748H112.97C113.113 1.10756 113.233 1.16187 113.329 1.27057C113.442 1.36335 113.498 1.48002 113.498 1.6192C113.498 1.71178 113.475 1.79758 113.427 1.87408L109.102 8.88775L113.834 16.5997C113.882 16.6612 113.906 16.7467 113.906 16.8545C113.906 16.9947 113.85 17.1187 113.738 17.2266C113.642 17.3194 113.522 17.3663 113.377 17.3663H107.901C107.581 17.3663 107.348 17.2964 107.204 17.1573C107.06 17.002 106.964 16.8936 106.915 16.8311L103.961 11.7217H103.385V16.7383C103.385 16.9088 103.321 17.0567 103.192 17.1807C103.064 17.3047 102.912 17.3663 102.735 17.3663H98.0283C97.852 17.3663 97.6996 17.3111 97.5713 17.2032C97.443 17.0791 97.3789 16.9249 97.3789 16.7383V1.73443C97.379 1.56412 97.4431 1.41798 97.5713 1.294C97.6996 1.17002 97.8521 1.10748 98.0283 1.10748H102.735ZM0 4.39752C0 0.413824 3.89706 -0.712408 5.03613 0.41412C5.74069 1.11168 4.03862 5.3317 3.46289 8.8985C3.16556 10.737 0.902261 12.6833 0.15332 10.9698C0.0553751 10.7461 6.75044e-05 10.5123 0 10.2725V4.39752ZM44.5762 0.413144C45.7166 -0.712974 49.6133 0.414114 49.6133 4.39752V10.2715C49.6133 10.5115 49.558 10.7459 49.46 10.9698C48.711 12.6832 46.4478 10.737 46.1504 8.8985C45.5736 5.33132 43.871 1.11004 44.5762 0.413144ZM22.6455 0.48541C23.4998 -0.134837 25.7734 -0.18728 26.8916 0.48541C28.009 1.15874 25.9974 5.2294 25.5625 5.78912C25.1776 6.28532 24.4252 6.37003 23.9746 5.78912C23.6189 5.33128 21.792 1.10549 22.6455 0.48541Z" fill="url(#paint0_linear_1_1700)"/>
<defs>
<linearGradient id="paint0_linear_1_1700" x1="71.5" y1="-41.5002" x2="56.9998" y2="48.0006" gradientUnits="userSpaceOnUse">
<stop stop-color="#1B2E3F"/>
<stop offset="1" stop-color="#606468"/>
</linearGradient>
</defs>
</svg>
