<svg width="704" height="333" viewBox="0 0 704 333" fill="none" xmlns="http://www.w3.org/2000/svg">
<path d="M613.824 109.957C613.575 98.343 611.531 88.5248 607.909 81.5541C603.656 73.3683 597.402 69.3842 588.217 69.0275L589.121 46.0721C606.696 46.7613 620.273 55.3825 628.384 70.9984C633.686 81.2096 636.544 94.1533 636.871 109.467L613.824 109.957Z" fill="#BBCBB6" stroke="#1B2E3F" stroke-miterlimit="10" stroke-linecap="round"/>
<path d="M590.304 42.2756C601.88 42.2756 611.264 32.9238 611.264 21.3878C611.264 9.85178 601.88 0.5 590.304 0.5C578.728 0.5 569.344 9.85178 569.344 21.3878C569.344 32.9238 578.728 42.2756 590.304 42.2756Z" fill="#1B2E3F" stroke="#1B2E3F" stroke-miterlimit="10" stroke-linecap="round"/>
<path d="M534.443 23.1653L532.514 21.0312C530.785 19.1993 535.159 9.0245 529.79 8.51061C524.421 8.00278 525.082 14.4233 525.082 14.4233C525.082 14.4233 523.833 12.8937 522.007 10.9712C518.191 6.94479 511.857 1.17118 509.066 3.87963C507.307 5.59056 508.09 7.93023 509.564 10.0523C506.749 7.95441 504.607 7.8335 503.176 9.50815C501.059 11.9687 505.263 15.85 508.527 18.3106C505.117 16.2249 500.1 13.8913 498.407 16.9745C495.768 21.8111 504.45 23.6731 507.125 26.4783C509.807 29.2775 516.468 37.56 516.468 37.56" fill="#E7D8C9"/>
<path d="M534.443 23.1653L532.514 21.0312C530.785 19.1993 535.159 9.0245 529.79 8.51061C524.421 8.00278 525.082 14.4233 525.082 14.4233C525.082 14.4233 523.833 12.8937 522.007 10.9712C518.191 6.94479 511.857 1.17118 509.066 3.87963C507.307 5.59056 508.09 7.93023 509.564 10.0523C506.749 7.95441 504.607 7.8335 503.176 9.50815C501.059 11.9687 505.263 15.85 508.527 18.3106C505.117 16.2249 500.1 13.8913 498.407 16.9745C495.768 21.8111 504.45 23.6731 507.125 26.4783C509.807 29.2775 516.468 37.56 516.468 37.56" stroke="#1B2E3F" stroke-miterlimit="10" stroke-linecap="round"/>
<path d="M509.57 10.0522C511.657 12.3737 514.302 14.6408 514.302 14.6408L509.57 10.0522Z" fill="#BBCBB6"/>
<path d="M509.57 10.0522C511.657 12.3737 514.302 14.6408 514.302 14.6408" stroke="#1B2E3F" stroke-miterlimit="10" stroke-linecap="round"/>
<path d="M508.531 18.3042C509.914 19.5133 510.74 19.9607 510.74 19.9607L508.531 18.3042Z" fill="#BBCBB6"/>
<path d="M508.531 18.3042C509.914 19.5133 510.74 19.9607 510.74 19.9607" stroke="#1B2E3F" stroke-miterlimit="10" stroke-linecap="round"/>
<path d="M517.294 12.4524C517.294 12.4524 512.04 15.5659 509.377 23.395" stroke="#1B2E3F" stroke-miterlimit="10" stroke-linecap="round"/>
<path d="M585.948 40.4375H590.304V48.321H584.844L585.948 40.4375Z" fill="#E7D8C9" stroke="#1B2E3F" stroke-miterlimit="10" stroke-linecap="round"/>
<path d="M587.575 43.0373C591.18 43.0373 594.102 40.1248 594.102 36.5321C594.102 32.9394 591.18 30.027 587.575 30.027C583.969 30.027 581.047 32.9394 581.047 36.5321C581.047 40.1248 583.969 43.0373 587.575 43.0373Z" fill="#E7D8C9" stroke="#1B2E3F" stroke-miterlimit="10" stroke-linecap="round"/>
<path d="M584.619 68.9793C542.183 68.9793 517.528 38.8718 516.473 37.5599L534.478 23.2136L534.442 23.1652C535.237 24.1386 554.316 46.9851 586.67 45.9695L587.373 68.9309C586.445 68.9611 585.529 68.9732 584.619 68.9732V68.9793Z" fill="#BBCBB6" stroke="#1B2E3F" stroke-miterlimit="10" stroke-linecap="round"/>
<path d="M586.67 45.9696C574.67 46.1751 566.389 51.06 559.582 90.4898C552.776 129.92 613.818 109.957 613.818 109.957C613.818 109.957 617.234 45.4557 586.664 45.9696H586.67Z" fill="#BBCBB6" stroke="#1B2E3F" stroke-miterlimit="10" stroke-linecap="round"/>
<path d="M656.759 123.174C653.665 96.0415 630.563 74.9542 602.505 74.9542C591.239 74.9542 580.774 78.3579 572.081 84.1799C562.247 74.664 548.833 68.7937 534.043 68.7937C513.993 68.7937 496.478 79.5671 486.978 95.6123C480.626 93.0368 473.686 91.604 466.4 91.604C441.314 91.604 420.196 108.465 413.79 131.427C410.004 130.109 405.934 129.383 401.693 129.383C392.09 129.383 383.348 133.065 376.808 139.087C368.6 127.279 354.913 119.541 339.407 119.541C314.291 119.541 293.932 139.83 293.932 164.865C293.932 189.9 314.291 210.184 339.407 210.184C354.343 210.184 367.599 203.007 375.886 191.926C377.469 193.486 379.192 194.906 381.036 196.158C371.979 209.99 366.713 226.513 366.713 244.263C366.713 292.955 406.322 332.427 455.183 332.427C485.212 332.427 511.748 317.512 527.74 294.714C544.453 293.463 559.868 287.58 572.705 278.355C585.069 284.902 599.174 288.614 614.147 288.614C663.007 288.614 702.616 249.142 702.616 200.45C702.616 167.151 684.089 138.168 656.746 123.168L656.759 123.174Z" fill="white" stroke="#DDE0F0" stroke-miterlimit="10" stroke-linecap="round"/>
<path d="M464.307 97.539C466.824 71.5427 449.413 47.2451 423.169 41.6892C412.631 39.4583 402.16 40.5707 392.866 44.2948C385.562 33.4429 374.187 25.2933 360.349 22.3672C341.591 18.3952 323.057 25.0092 310.973 38.1404C305.543 34.4706 299.337 31.7561 292.524 30.3173C269.058 25.3477 245.938 36.9433 235.37 57.154C232.088 55.171 228.43 53.6838 224.462 52.8495C215.478 50.9451 206.566 52.662 199.243 57.0028C193.917 44.3311 182.657 34.386 168.152 31.3148C147.641 26.974 127.439 37.8139 119.316 56.2169C117.204 55.8602 115.045 55.6607 112.83 55.6607C93.1381 55.6607 76.9281 70.4726 74.7805 89.5225C73.9918 89.4983 73.2092 89.4801 72.4145 89.4801C34.2615 89.4801 3.33984 120.301 3.33984 158.316C3.33984 196.331 34.2675 227.152 72.4145 227.152C110.561 227.152 188.305 243.723 234.017 253.402C262.112 259.351 289.903 250.652 309.413 232.484C325.296 234.624 340.893 232.17 354.737 226.082C364.996 234.655 377.451 240.918 391.465 243.886C437.177 253.56 482.1 224.474 491.807 178.926C498.444 147.772 486.893 116.994 464.307 97.5451V97.539Z" fill="white" stroke="#DDE0F0" stroke-miterlimit="10" stroke-linecap="round"/>
<path d="M463.497 209.329L477.942 227.146H427.898L409.729 209.329H463.497Z" fill="#E6BEAE" stroke="#1B2E3F" stroke-miterlimit="10" stroke-linecap="round"/>
<path d="M364.799 145.59C364.799 145.59 382.404 146.974 377.988 157.179C373.571 167.385 377.508 178.569 374.257 185.05C371.005 191.531 368.396 194.959 364.453 192.77C360.51 190.582 362.038 187.353 362.038 187.353C362.038 187.353 357.13 186.9 357.033 183.75C357.033 183.75 351.276 183.762 356.694 172.276C356.694 172.276 338.633 166.484 364.805 145.59H364.799Z" fill="#E6BEAE" stroke="#1B2E3F" stroke-miterlimit="10" stroke-linecap="round"/>
<path d="M362.039 187.36C362.039 187.36 363.695 184.415 364.199 183.061L362.039 187.36Z" fill="#BBCBB6"/>
<path d="M362.039 187.36C362.039 187.36 363.695 184.415 364.199 183.061" stroke="#1B2E3F" stroke-miterlimit="10" stroke-linecap="round"/>
<path d="M357.033 183.756C357.707 181.489 359.126 179.591 359.126 179.591L357.033 183.756Z" fill="#BBCBB6"/>
<path d="M357.033 183.756C357.707 181.489 359.126 179.591 359.126 179.591" stroke="#1B2E3F" stroke-miterlimit="10" stroke-linecap="round"/>
<path d="M438.847 37.8138L409.934 28.431V41.3324L416.401 44.2827C416.401 67.1353 397.685 76.5968 379.692 78.1445L377.308 69.5173L372.424 70.8171L371.623 78.344C351.361 77.951 337.304 72.9875 329.824 63.5684C323.982 56.2168 323.114 47.3539 322.975 41.3264C324.037 32.6629 313.657 23.8302 307.881 23.8302C302.573 23.8302 299.928 31.4296 299.928 41.8705C300.844 80.2242 327.252 101.342 374.28 101.342C390.812 101.342 406.264 96.6986 417.778 88.271C431.962 77.8905 439.454 62.6796 439.454 44.2766L438.847 37.8078V37.8138Z" fill="#E6BEAE" stroke="#1B2E3F" stroke-miterlimit="10" stroke-linecap="round"/>
<path d="M374.239 72.2317C377.844 72.2317 380.766 69.3193 380.766 65.7266C380.766 62.1339 377.844 59.2214 374.239 59.2214C370.633 59.2214 367.711 62.1339 367.711 65.7266C367.711 69.3193 370.633 72.2317 374.239 72.2317Z" fill="#E6BEAE" stroke="#1B2E3F" stroke-miterlimit="10" stroke-linecap="round"/>
<path d="M367.651 65.4547C366.82 61.7789 369.264 58.1636 372.989 57.547C376.781 56.9182 380.306 59.6508 380.627 63.4657L380.755 64.9468C380.761 65.0194 380.682 65.0678 380.621 65.0194C379.62 64.2455 373.699 60.1103 367.924 65.5333C367.833 65.6179 367.681 65.5756 367.657 65.4547H367.651Z" fill="#BBCBB6" stroke="#1B2E3F" stroke-miterlimit="10" stroke-linecap="round"/>
<path d="M380.768 65.1402L388.369 63.9553" stroke="#1B2E3F" stroke-miterlimit="10" stroke-linecap="round"/>
<path d="M406.166 1.26166L410.322 8.83688" stroke="#1B2E3F" stroke-miterlimit="10" stroke-linecap="round"/>
<path d="M299.669 26.0248C295.543 26.3029 292.061 29.4527 294.597 34.5794C297.133 39.7061 300.451 39.8512 303.224 38.7509C305.996 37.6506 305.201 32.6629 305.201 32.6629" fill="#E6BEAE"/>
<path d="M299.669 26.0248C295.543 26.3029 292.061 29.4527 294.597 34.5794C297.133 39.7061 300.451 39.8512 303.224 38.7509C305.996 37.6506 305.201 32.6629 305.201 32.6629" stroke="#1B2E3F" stroke-miterlimit="10" stroke-linecap="round"/>
<path d="M307.178 20.8618C304.097 20.626 300.062 20.7651 299.346 28.0683C298.63 35.3714 303.187 36.6894 307.16 36.4234C311.134 36.1574 310.382 32.7597 310.382 32.7597" fill="#E6BEAE"/>
<path d="M307.178 20.8618C304.097 20.626 300.062 20.7651 299.346 28.0683C298.63 35.3714 303.187 36.6894 307.16 36.4234C311.134 36.1574 310.382 32.7597 310.382 32.7597" stroke="#1B2E3F" stroke-miterlimit="10" stroke-linecap="round"/>
<path d="M322.976 41.3263C322.976 41.3263 315.95 30.1236 316.612 20.1906C317.273 10.2576 317.625 7.18035 313.233 6.35209C308.84 5.52383 305.959 16.799 307.651 25.1602" fill="#E6BEAE"/>
<path d="M322.976 41.3263C322.976 41.3263 315.95 30.1236 316.612 20.1906C317.273 10.2576 317.625 7.18035 313.233 6.35209C308.84 5.52383 305.959 16.799 307.651 25.1602" stroke="#1B2E3F" stroke-miterlimit="10" stroke-linecap="round"/>
<path d="M315.884 37.2639C304.582 36.1817 309.077 25.3963 318.572 28.7093C328.066 32.0223 322.412 38.4488 323.073 43.7328" fill="#E6BEAE"/>
<path d="M315.884 37.2639C304.582 36.1817 309.077 25.3963 318.572 28.7093C328.066 32.0223 322.412 38.4488 323.073 43.7328" stroke="#1B2E3F" stroke-miterlimit="10" stroke-linecap="round"/>
<path d="M404.033 12.7366L416.379 41.3265C416.379 41.3265 425.873 41.5986 427.772 37.3424L422.549 6.31004C422.549 6.31004 409.608 3.27512 404.033 12.7426V12.7366Z" fill="#BBCBB6" stroke="#1B2E3F" stroke-miterlimit="10" stroke-linecap="round"/>
<path d="M416.401 44.2828C411.39 42.1547 402.29 40.0267 403 33.7936C403.71 27.5605 412.258 20.1485 415.898 24.8823C419.538 29.616 412.258 33.4792 411.226 35.3715" fill="#E6BEAE"/>
<path d="M416.401 44.2828C411.39 42.1547 402.29 40.0267 403 33.7936C403.71 27.5605 412.258 20.1485 415.898 24.8823C419.538 29.616 412.258 33.4792 411.226 35.3715" stroke="#1B2E3F" stroke-miterlimit="10" stroke-linecap="round"/>
<path d="M425.187 21.9742C428.754 22.1011 431.412 20.0698 431.096 16.2852C430.781 12.5006 425.266 12.5611 423.628 12.7303C421.99 12.8996 421.092 21.823 425.181 21.9742H425.187Z" fill="#E6BEAE" stroke="#1B2E3F" stroke-miterlimit="10" stroke-linecap="round"/>
<path d="M425.188 21.9741C428.785 21.3574 436.557 19.9911 436.557 25.1964C436.557 30.4017 429.847 30.7947 426.753 31.2662C423.659 31.7378 422.1 22.5 425.188 21.9741Z" fill="#E6BEAE" stroke="#1B2E3F" stroke-miterlimit="10" stroke-linecap="round"/>
<path d="M439.457 44.2829C439.56 37.1066 439.657 34.1503 436.855 31.7865C434.052 29.4226 429.708 30.6438 426.754 31.2726C423.799 31.9013 424.727 39.4403 429.732 39.0594C434.737 38.6785 435.447 38.2916 435.447 38.2916" fill="#E6BEAE"/>
<path d="M439.457 44.2829C439.56 37.1067 439.657 34.1503 436.855 31.7865C434.052 29.4226 429.708 30.6438 426.754 31.2726C423.799 31.9013 424.727 39.4403 429.732 39.0594C434.737 38.6785 435.447 38.2916 435.447 38.2916" stroke="#1B2E3F" stroke-miterlimit="10" stroke-linecap="round"/>
<path d="M357.672 100.368C336.93 102.158 327.594 121.716 327.594 136.697C327.594 151.678 337.246 168.08 352.758 172.656L370.643 144.266C370.643 144.266 358.218 143.293 362.016 128.892C364.072 121.081 374.24 125.186 374.24 125.186L407.989 210.823H467.812L394.842 98.8208L357.666 100.368H357.672Z" fill="#1B2E3F" stroke="#1B2E3F" stroke-miterlimit="10" stroke-linecap="round"/>
<path d="M371.625 78.3441H374.755" stroke="#1B2E3F" stroke-miterlimit="10" stroke-linecap="round"/>
<path d="M477.942 227.146C477.942 222.267 473.974 218.313 469.078 218.313C464.182 218.313 460.215 222.267 460.215 227.146H477.942Z" fill="#E6BEAE" stroke="#1B2E3F" stroke-miterlimit="10" stroke-linecap="round"/>
<path d="M464.651 227.146C464.651 220.895 460.683 215.828 455.787 215.828C450.891 215.828 446.924 220.895 446.924 227.146H464.651Z" fill="#E6BEAE" stroke="#1B2E3F" stroke-miterlimit="10" stroke-linecap="round"/>
<path d="M450.442 227.146C450.442 219.196 445.395 212.757 439.17 212.757C432.946 212.757 427.898 219.202 427.898 227.146H450.442Z" fill="#E6BEAE" stroke="#1B2E3F" stroke-miterlimit="10" stroke-linecap="round"/>
<path d="M242.25 144.655C242.25 144.655 258.618 152.551 259.249 139.305C259.88 126.058 268.428 116.222 268.428 107.577C268.428 98.9316 267.639 93.8834 263.126 94.1192C258.612 94.355 258.533 98.6111 258.533 98.6111C258.533 98.6111 253.941 96.4831 252.442 99.7961C252.442 99.7961 247.298 96.7189 246.982 111.863C246.982 111.863 228.23 108.435 242.25 144.661V144.655Z" fill="#E6BEAE" stroke="#1B2E3F" stroke-miterlimit="10" stroke-linecap="round"/>
<path d="M148.914 48.535C145.39 48.535 142.18 49.859 139.748 52.0294C137.315 49.853 134.106 48.535 130.581 48.535C122.998 48.535 116.852 54.6593 116.852 62.2164C116.852 62.2345 116.852 62.2466 116.852 62.2647C111.332 62.7363 107 67.3431 107 72.9595C107 78.8964 111.829 83.7027 117.78 83.7027C120.638 83.7027 123.228 82.5842 125.157 80.7766C126.941 84.2528 130.563 86.6409 134.755 86.6409C140.712 86.6409 145.535 81.8285 145.535 75.8977C145.535 75.7526 145.517 75.6136 145.511 75.4745C146.597 75.7526 147.731 75.8977 148.908 75.8977C156.492 75.8977 162.637 69.7735 162.637 62.2164C162.637 54.6593 156.492 48.535 148.908 48.535H148.914Z" fill="#1B2E3F"/>
<path d="M148.664 73.2979H144.314V81.1814H149.774L148.664 73.2979Z" fill="#E6BEAE" stroke="#1B2E3F" stroke-miterlimit="10" stroke-linecap="round"/>
<path d="M112.063 114.874C110.722 119.021 122.667 120.539 119.822 124.874C116.698 129.632 110.115 123.374 110.115 123.374C107.901 132.679 105.996 137.346 102.283 136.227C99.0802 135.266 100.391 130.466 100.767 129.263C99.2258 133.598 97.5272 135.574 94.9731 134.807C91.8064 133.858 92.9348 128.924 93.2988 127.6C92.2553 130.853 90.5081 133.845 87.6932 132.993C81.9966 131.258 89.3797 110.769 89.3797 110.769C90.3079 107.68 93.5657 100.304 102.229 92.1183C107.246 87.3785 115.345 82.1852 127.903 79.7791C130.214 79.3377 132.677 78.9871 135.304 78.7573L132.629 102.178C122.637 103.859 117.268 107.867 114.538 111.017L114.526 111.029C113.155 112.613 112.445 113.979 112.154 114.717L112.069 114.85C112.069 114.85 112.069 114.868 112.069 114.874H112.063Z" fill="#E6BEAE" stroke="#1B2E3F" stroke-miterlimit="10" stroke-linecap="round"/>
<path d="M204.834 73.1348C201.194 82.5841 194.2 90.2077 184.596 95.1833C179.009 98.0852 172.681 100.032 165.668 101.011L158.916 78.6303C171.529 77.7234 180.228 72.9171 183.316 64.9006C186.307 57.1319 183.565 47.5616 176.643 40.5728C174.841 38.8014 164.54 42.9367 164.139 37.5802C163.745 32.2177 170.176 33.0218 170.176 33.0218C170.176 33.0218 168.671 31.7461 166.778 29.8841C162.823 25.9967 157.169 19.5581 159.947 16.8375C161.701 15.1205 164.03 15.9548 166.129 17.4663C164.085 14.6188 164.012 12.4786 165.723 11.0881C168.24 9.03256 172.038 13.3068 174.434 16.6138C172.414 13.1738 170.188 8.11967 173.318 6.50547C178.226 3.98443 179.907 12.6721 182.661 15.3986C185.409 18.1313 188.145 20.0538 188.145 20.0538C196.371 26.5348 202.335 34.9926 205.38 44.5085C208.45 54.097 208.256 64.2658 204.84 73.1348H204.834Z" fill="#E6BEAE" stroke="#1B2E3F" stroke-miterlimit="10" stroke-linecap="round"/>
<path d="M166.123 17.4662C168.41 19.6004 170.624 22.2786 170.624 22.2786L166.123 17.4662Z" fill="#E6BEAE"/>
<path d="M166.123 17.4662C168.41 19.6004 170.624 22.2786 170.624 22.2786" stroke="#1B2E3F" stroke-miterlimit="10" stroke-linecap="round"/>
<path d="M174.43 16.6139C175.613 18.0225 176.043 18.8508 176.043 18.8508L174.43 16.6139Z" fill="#E6BEAE"/>
<path d="M174.43 16.6139C175.613 18.0225 176.043 18.8508 176.043 18.8508" stroke="#1B2E3F" stroke-miterlimit="10" stroke-linecap="round"/>
<path d="M168.375 24.7995C168.375 24.7995 171.615 19.6365 179.525 17.1517L168.375 24.7995Z" fill="#E6BEAE"/>
<path d="M168.375 24.7995C168.375 24.7995 171.615 19.6365 179.525 17.1517" stroke="#1B2E3F" stroke-miterlimit="10" stroke-linecap="round"/>
<path d="M93.2988 127.6C94.2816 123.985 94.5789 123.035 94.5789 123.035L93.2988 127.6Z" fill="#E6BEAE"/>
<path d="M93.2988 127.6C94.2816 123.985 94.5789 123.035 94.5789 123.035" stroke="#1B2E3F" stroke-miterlimit="10" stroke-linecap="round"/>
<path d="M100.77 129.263C101.643 126.47 102.062 124.517 102.062 124.517L100.77 129.263Z" fill="#E6BEAE"/>
<path d="M100.77 129.263C101.643 126.47 102.062 124.517 102.062 124.517" stroke="#1B2E3F" stroke-miterlimit="10" stroke-linecap="round"/>
<path d="M147.045 75.8975C150.65 75.8975 153.573 72.9851 153.573 69.3924C153.573 65.7997 150.65 62.8872 147.045 62.8872C143.44 62.8872 140.518 65.7997 140.518 69.3924C140.518 72.9851 143.44 75.8975 147.045 75.8975Z" fill="#E6BEAE" stroke="#1B2E3F" stroke-miterlimit="10" stroke-linecap="round"/>
<path d="M180.593 150.501H127.104L132.63 102.178L135.306 78.7571C139.643 78.3702 144.424 78.2977 149.677 78.6302C152.947 78.8418 156.035 78.8357 158.917 78.6302L165.669 101.011L180.593 150.501Z" fill="#B2967D" stroke="#1B2E3F" stroke-miterlimit="10" stroke-linecap="round"/>
<path d="M242 146.396L246.987 111.857C246.987 111.857 212.511 83.8959 166.125 104.288C113.097 127.6 173.951 129.263 173.951 129.263C173.951 129.263 201.882 118.483 242 146.402V146.396Z" fill="#B2967D" stroke="#1B2E3F" stroke-miterlimit="10" stroke-linecap="round"/>
<path d="M258.537 98.6111C258.537 98.6111 258.694 102.631 258.537 104.348V98.6111Z" fill="#E6BEAE"/>
<path d="M258.537 98.6111C258.537 98.6111 258.694 102.631 258.537 104.348" stroke="#1B2E3F" stroke-miterlimit="10" stroke-linecap="round"/>
<path d="M252.441 99.7898C252.028 102.571 252.441 105.352 252.441 105.352V99.7898Z" fill="#E6BEAE"/>
<path d="M252.441 99.7898C252.028 102.571 252.441 105.352 252.441 105.352" stroke="#1B2E3F" stroke-miterlimit="10" stroke-linecap="round"/>
<path d="M369.017 207.119C367.404 207.119 365.814 207.228 364.249 207.421C353.05 188.819 332.611 176.364 309.255 176.364C303.613 176.364 298.141 177.096 292.93 178.456C287.9 163.227 273.516 152.23 256.554 152.23C250.087 152.23 243.996 153.832 238.652 156.656C235.351 138.924 219.76 125.49 201.008 125.49C194.893 125.49 189.118 126.923 183.991 129.462C174.084 123.205 162.333 119.578 149.733 119.578C124.472 119.578 102.626 134.148 92.191 155.307C87.5561 153.324 82.4541 152.224 77.0972 152.224C55.9429 152.224 38.7986 169.309 38.7986 190.39C17.6443 190.39 0.5 207.475 0.5 228.557C0.5 242.045 7.52516 253.888 18.1236 260.677C16.7586 264.601 16.0063 268.803 16.0063 273.192C16.0063 294.273 33.1506 311.358 54.3049 311.358C66.6323 311.358 77.5886 305.548 84.5956 296.534C95.2668 304.454 108.492 309.145 122.821 309.145C145.832 309.145 166.004 297.06 177.306 278.911C189.063 293.13 206.862 302.199 226.797 302.199C241.976 302.199 255.923 296.939 266.898 288.149C278.194 298.07 293.015 304.091 309.255 304.091C328.711 304.091 346.14 295.446 357.897 281.807C361.416 282.871 365.147 283.445 369.017 283.445C390.172 283.445 407.316 266.36 407.316 245.279C407.316 224.198 390.172 207.113 369.017 207.113V207.119Z" fill="white" stroke="#DDE0F0" stroke-miterlimit="10" stroke-linecap="round"/>
<path d="M93.1543 211.453C93.1543 190.372 110.299 173.287 131.453 173.287C152.607 173.287 169.752 190.372 169.752 211.453" fill="white"/>
<path d="M93.1543 211.453C93.1543 190.372 110.299 173.287 131.453 173.287C152.607 173.287 169.752 190.372 169.752 211.453" stroke="#DDE0F0" stroke-miterlimit="10" stroke-linecap="round"/>
<path d="M288.07 252.618C288.07 239.56 277.447 228.974 264.343 228.974C263.603 228.974 262.869 229.01 262.147 229.077C258.307 212.04 243.043 199.308 224.789 199.308C203.635 199.308 186.49 216.393 186.49 237.474" fill="white"/>
<path d="M288.07 252.618C288.07 239.56 277.447 228.974 264.343 228.974C263.603 228.974 262.869 229.01 262.147 229.077C258.307 212.04 243.043 199.308 224.789 199.308C203.635 199.308 186.49 216.393 186.49 237.474" stroke="#DDE0F0" stroke-miterlimit="10" stroke-linecap="round"/>
<path d="M623.478 180.59C623.478 159.509 606.333 142.424 585.179 142.424C565.723 142.424 549.665 156.885 547.214 175.608C545.485 175.294 543.708 175.125 541.894 175.125C525.489 175.125 512.191 188.377 512.191 204.724" fill="white"/>
<path d="M623.478 180.59C623.478 159.509 606.333 142.424 585.179 142.424C565.723 142.424 549.665 156.885 547.214 175.608C545.485 175.294 543.708 175.125 541.894 175.125C525.489 175.125 512.191 188.377 512.191 204.724" stroke="#DDE0F0" stroke-miterlimit="10" stroke-linecap="round"/>
</svg>
