<svg width="48" height="48" viewBox="0 0 48 48" fill="none" xmlns="http://www.w3.org/2000/svg">
<circle cx="24" cy="24" r="24" fill="#F2EBEC"/>
<path d="M24 25.54L27.19 28.73C27.3917 28.9317 27.6483 29.0325 27.96 29.0325C28.2717 29.0325 28.5283 28.9317 28.73 28.73C28.9317 28.5283 29.0325 28.2717 29.0325 27.96C29.0325 27.6483 28.9317 27.3917 28.73 27.19L25.54 24L28.73 20.81C28.9317 20.6083 29.0325 20.3517 29.0325 20.04C29.0325 19.7283 28.9317 19.4717 28.73 19.27C28.5283 19.0683 28.2717 18.9675 27.96 18.9675C27.6483 18.9675 27.3917 19.0683 27.19 19.27L24 22.46L20.81 19.27C20.6083 19.0683 20.3517 18.9675 20.04 18.9675C19.7283 18.9675 19.4717 19.0683 19.27 19.27C19.0683 19.4717 18.9675 19.7283 18.9675 20.04C18.9675 20.3517 19.0683 20.6083 19.27 20.81L22.46 24L19.27 27.19C19.0683 27.3917 18.9675 27.6483 18.9675 27.96C18.9675 28.2717 19.0683 28.5283 19.27 28.73C19.4717 28.9317 19.7283 29.0325 20.04 29.0325C20.3517 29.0325 20.6083 28.9317 20.81 28.73L24 25.54ZM24 35C22.4783 35 21.0483 34.7111 19.71 34.1332C18.3717 33.5553 17.2075 32.7718 16.2175 31.7825C15.2275 30.7925 14.4439 29.6283 13.8668 28.29C13.2897 26.9517 13.0007 25.5217 13 24C13 22.4783 13.2889 21.0483 13.8668 19.71C14.4447 18.3717 15.2282 17.2075 16.2175 16.2175C17.2075 15.2275 18.3717 14.4439 19.71 13.8668C21.0483 13.2897 22.4783 13.0007 24 13C25.5217 13 26.9517 13.2889 28.29 13.8668C29.6283 14.4447 30.7925 15.2282 31.7825 16.2175C32.7725 17.2075 33.5564 18.3717 34.1343 19.71C34.7122 21.0483 35.0007 22.4783 35 24C35 25.5217 34.7111 26.9517 34.1332 28.29C33.5553 29.6283 32.7718 30.7925 31.7825 31.7825C30.7925 32.7725 29.6283 33.5564 28.29 34.1343C26.9517 34.7122 25.5217 35.0007 24 35Z" fill="#DF536C"/>
</svg>
