<svg width="48" height="48" viewBox="0 0 48 48" fill="none" xmlns="http://www.w3.org/2000/svg">
<circle cx="24" cy="24" r="24" fill="#7EA373"/>
<path d="M22.46 25.98L20.095 23.615C19.8933 23.4133 19.6367 23.3125 19.325 23.3125C19.0133 23.3125 18.7567 23.4133 18.555 23.615C18.3533 23.8167 18.2525 24.0733 18.2525 24.385C18.2525 24.6967 18.3533 24.9533 18.555 25.155L21.69 28.29C21.91 28.51 22.1667 28.62 22.46 28.62C22.7533 28.62 23.01 28.51 23.23 28.29L29.445 22.075C29.6467 21.8733 29.7475 21.6167 29.7475 21.305C29.7475 20.9933 29.6467 20.7367 29.445 20.535C29.2433 20.3333 28.9867 20.2325 28.675 20.2325C28.3633 20.2325 28.1067 20.3333 27.905 20.535L22.46 25.98ZM24 35C22.4783 35 21.0483 34.7111 19.71 34.1332C18.3717 33.5553 17.2075 32.7718 16.2175 31.7825C15.2275 30.7925 14.4439 29.6283 13.8668 28.29C13.2897 26.9517 13.0007 25.5217 13 24C13 22.4783 13.2889 21.0483 13.8668 19.71C14.4447 18.3717 15.2282 17.2075 16.2175 16.2175C17.2075 15.2275 18.3717 14.4439 19.71 13.8668C21.0483 13.2897 22.4783 13.0007 24 13C25.5217 13 26.9517 13.2889 28.29 13.8668C29.6283 14.4447 30.7925 15.2282 31.7825 16.2175C32.7725 17.2075 33.5564 18.3717 34.1343 19.71C34.7122 21.0483 35.0007 22.4783 35 24C35 25.5217 34.7111 26.9517 34.1332 28.29C33.5553 29.6283 32.7718 30.7925 31.7825 31.7825C30.7925 32.7725 29.6283 33.5564 28.29 34.1343C26.9517 34.7122 25.5217 35.0007 24 35Z" fill="white"/>
</svg>
