<svg width="39" height="39" viewBox="0 0 39 39" fill="none" xmlns="http://www.w3.org/2000/svg">
<circle cx="19.5" cy="19.5" r="19.5" fill="white"/>
<path d="M19.5 10.4C14.4745 10.4 10.4 14.4991 10.4 19.555C10.4 24.1237 13.7273 27.9106 18.0785 28.6V22.2019H15.7668V19.555H18.0785V17.5379C18.0785 15.2416 19.4372 13.9754 21.515 13.9754C22.5106 13.9754 23.5536 14.1539 23.5536 14.1539V16.4053H22.4032C21.2747 16.4053 20.9216 17.1122 20.9216 17.8364V19.5531H23.4435L23.0403 22.2001H20.9216V28.5982C25.2727 27.9124 28.6 24.1246 28.6 19.555C28.6 14.4991 24.5255 10.4 19.5 10.4Z" fill="#DDE0F0"/>
</svg>
