<svg width="39" height="39" viewBox="0 0 39 39" fill="none" xmlns="http://www.w3.org/2000/svg">
<circle cx="19.5" cy="19.5" r="19.5" fill="white"/>
<path fill-rule="evenodd" clip-rule="evenodd" d="M28.1179 13.5359C28.3879 14.2511 28.5312 15.0077 28.5414 15.7718C28.5977 16.733 28.598 17.0473 28.5999 19.4802L28.6 19.5141C28.6 21.9791 28.5869 22.2868 28.5434 23.2575C28.5283 24.0132 28.3858 24.7578 28.12 25.4641C27.8856 26.0672 27.5278 26.6149 27.0697 27.0723C26.6116 27.5297 26.063 27.8868 25.4589 28.1208C24.7517 28.3857 24.0047 28.5287 23.2496 28.5435C22.2844 28.6 21.9681 28.6 19.5 28.6C17.032 28.6 16.7237 28.5869 15.7505 28.5435C14.9938 28.5187 14.247 28.3651 13.5422 28.0895C12.9379 27.856 12.389 27.4992 11.9306 27.042C11.4722 26.5847 11.1144 26.037 10.8801 25.4338C10.6143 24.7265 10.4718 23.9819 10.4566 23.2272C10.4 22.2626 10.4 21.9478 10.4 19.4839C10.4 17.02 10.4132 16.7122 10.4566 15.7406C10.4709 14.987 10.6141 14.2414 10.8801 13.5359C11.114 12.9326 11.4716 12.3847 11.9298 11.9273C12.388 11.4698 12.9368 11.1129 13.5412 10.8793C14.248 10.6144 14.9946 10.4711 15.7494 10.4555C16.7146 10.4 17.031 10.4 19.499 10.4C21.9671 10.4 22.2753 10.4121 23.2476 10.4555C24.0026 10.471 24.7497 10.6143 25.4569 10.8793C26.061 11.113 26.6098 11.47 27.068 11.9275C27.5262 12.3849 27.8838 12.9327 28.1179 13.5359ZM14.8207 19.4788C14.8207 22.0558 16.9117 24.1434 19.493 24.1434C20.7321 24.1434 21.9205 23.652 22.7967 22.7772C23.673 21.9024 24.1652 20.7159 24.1652 19.4788C24.1652 18.2417 23.673 17.0553 22.7967 16.1805C21.9205 15.3058 20.7321 14.8143 19.493 14.8143C16.9117 14.8143 14.8207 16.9019 14.8207 19.4788ZM23.9341 15.6469C24.0663 15.7016 24.2081 15.7296 24.3512 15.7295C24.9526 15.7295 25.4397 15.2431 25.4397 14.6418C25.4397 14.499 25.4115 14.3576 25.3568 14.2257C25.302 14.0938 25.2218 13.974 25.1207 13.873C25.0196 13.7721 24.8995 13.692 24.7674 13.6374C24.6353 13.5827 24.4937 13.5546 24.3507 13.5546C24.2077 13.5546 24.0661 13.5827 23.9339 13.6374C23.8018 13.692 23.6817 13.7721 23.5807 13.873C23.4795 13.974 23.3993 14.0938 23.3446 14.2257C23.2898 14.3576 23.2617 14.499 23.2617 14.6418C23.2615 14.7847 23.2896 14.9262 23.3444 15.0582C23.3991 15.1902 23.4793 15.3102 23.5805 15.4112C23.6816 15.5122 23.8018 15.5923 23.9341 15.6469Z" fill="#DDE0F0"/>
</svg>
