<svg width="24" height="24" viewBox="0 0 24 24" fill="none" xmlns="http://www.w3.org/2000/svg">
<path d="M11.9982 13.4756C13.347 13.4756 14.5936 13.0955 15.591 12.4497C16.3635 11.9551 17.3689 12.0368 18.0474 12.654C19.9317 14.3625 21.0026 16.7863 20.9985 19.3327V20.4241C20.9985 21.5522 20.0829 22.4637 18.9548 22.4637H5.04152C3.91341 22.4637 2.99785 21.5522 2.99785 20.4241V19.3327C2.98967 16.7904 4.06056 14.3625 5.94482 12.6581C6.62332 12.0409 7.6329 11.9592 8.40132 12.4537C9.40272 13.0955 10.6453 13.4756 11.9982 13.4756Z" fill="#B5BBDB"/>
<path d="M11.9971 11.6567C14.7918 11.6567 17.0573 9.39122 17.0573 6.59658C17.0573 3.80195 14.7918 1.53645 11.9971 1.53645C9.20251 1.53645 6.93701 3.80195 6.93701 6.59658C6.93701 9.39122 9.20251 11.6567 11.9971 11.6567Z" fill="#B5BBDB"/>
</svg>
