<svg width="39" height="39" viewBox="0 0 39 39" fill="none" xmlns="http://www.w3.org/2000/svg">
<circle cx="19.5" cy="19.5" r="19.5" fill="white"/>
<path d="M29.7068 24.798C29.7068 24.7179 29.624 24.7179 29.624 24.6377C29.293 23.9966 28.5482 23.1953 27.5551 22.3138C27.0585 21.9131 26.8102 21.5925 26.6447 21.4322C26.3964 21.1117 26.3964 20.8713 26.4792 20.5507C26.562 20.3103 26.893 19.9096 27.4723 19.1884C27.8033 18.7877 27.9688 18.5473 28.2171 18.3069C29.4585 16.7042 30.0378 15.6624 29.8723 15.1815L29.7895 15.1014C29.7068 15.0213 29.624 14.9411 29.4585 14.9411C29.293 14.861 29.0447 14.861 28.7964 14.9411H25.6516C25.5689 14.9411 25.5689 14.9411 25.4033 14.9411C25.3206 14.9411 25.2378 14.9411 25.2378 14.9411H25.1551H25.0723L24.9895 15.0213C24.9068 15.1014 24.9068 15.1014 24.9068 15.1815C24.5757 16.0631 24.162 16.7843 23.7482 17.5857C23.4999 17.9863 23.2516 18.387 23.0034 18.7076C22.7551 19.0281 22.5896 19.2685 22.424 19.4288C22.2585 19.5891 22.093 19.6692 22.0102 19.8295C21.9275 19.9096 21.762 19.9898 21.762 19.9096C21.6792 19.9096 21.5965 19.9096 21.5965 19.8295C21.5137 19.7494 21.4309 19.6692 21.3482 19.5891C21.2654 19.5089 21.2654 19.3487 21.1827 19.1884C21.1827 19.0281 21.1827 18.8679 21.1827 18.7877C21.1827 18.7076 21.1827 18.4672 21.1827 18.3069C21.1827 18.0665 21.1827 17.9062 21.1827 17.8261C21.1827 17.5857 21.1827 17.2651 21.1827 16.9446C21.1827 16.624 21.1827 16.3836 21.1827 16.2233C21.1827 16.0631 21.1827 15.8226 21.1827 15.6624C21.1827 15.422 21.1827 15.2617 21.1827 15.1815C21.1827 15.1014 21.0999 14.9411 21.0999 14.861C21.0172 14.7809 20.9344 14.7007 20.8516 14.6206C20.7689 14.5405 20.6034 14.5405 20.5206 14.4603C20.1068 14.3802 19.6103 14.3 19.031 14.3C17.7068 14.3 16.7965 14.3802 16.4655 14.5405C16.2999 14.6206 16.1344 14.7007 16.0517 14.861C15.8862 15.0213 15.8861 15.1014 15.9689 15.1014C16.3827 15.1816 16.7137 15.3418 16.8793 15.5822L16.962 15.7425C17.0448 15.8227 17.0448 15.9829 17.1275 16.2233C17.2103 16.4637 17.2103 16.7042 17.2103 17.0247C17.2103 17.5055 17.2103 17.9864 17.2103 18.3069C17.2103 18.7076 17.1275 18.948 17.1275 19.1884C17.1275 19.4288 17.0448 19.5891 16.962 19.6692C16.8793 19.8295 16.8792 19.9096 16.7965 19.9096C16.7965 19.9096 16.7965 19.9898 16.7137 19.9898C16.631 19.9898 16.5482 20.0699 16.3827 20.0699C16.2999 20.0699 16.1344 19.9898 16.0517 19.9096C15.8862 19.8295 15.7206 19.6692 15.6379 19.509C15.4724 19.3487 15.3068 19.1083 15.1413 18.7877C14.9758 18.4672 14.7275 18.1466 14.562 17.6658L14.3965 17.3453C14.3137 17.185 14.1482 16.8644 13.9827 16.4637C13.8172 16.0631 13.6517 15.7425 13.4862 15.3418C13.4034 15.1816 13.3207 15.1014 13.2379 15.0213H13.1551C13.1551 15.0213 13.0724 14.9411 12.9896 14.9411C12.9068 14.9411 12.8241 14.861 12.7413 14.861H9.76204C9.43101 14.861 9.2655 14.9411 9.18274 15.0213L9.09998 15.1014C9.09998 15.1014 9.09998 15.1816 9.09998 15.2617C9.09998 15.3418 9.09998 15.422 9.18274 15.5822C9.59653 16.5439 10.0931 17.5055 10.5896 18.4672C11.0862 19.3487 11.5827 20.1501 11.9138 20.711C12.3276 21.272 12.6586 21.8329 13.0724 22.3138C13.4862 22.7946 13.7344 23.1151 13.8172 23.2754C13.9827 23.4357 14.0655 23.5158 14.1482 23.5959L14.3965 23.8364C14.562 23.9966 14.8103 24.237 15.1413 24.4774C15.4724 24.7179 15.8861 24.9583 16.2999 25.1987C16.7137 25.4391 17.2103 25.5994 17.7068 25.7596C18.2861 25.9199 18.7827 26.0001 19.2792 25.9199H20.5206C20.7689 25.9199 20.9344 25.8398 21.0999 25.6795L21.1827 25.5994C21.1827 25.5192 21.2654 25.5192 21.2654 25.4391C21.2654 25.359 21.2654 25.2788 21.2654 25.1185C21.2654 24.798 21.2654 24.5576 21.3482 24.3172C21.4309 24.0768 21.431 23.9165 21.5137 23.7562C21.5965 23.5959 21.6792 23.5158 21.762 23.4357C21.8447 23.3555 21.9275 23.2754 21.9275 23.2754H22.0102C22.1758 23.1953 22.424 23.2754 22.5896 23.4357C22.8378 23.5959 23.0861 23.8364 23.2516 24.0768C23.4171 24.3172 23.6654 24.5576 23.9965 24.8781C24.3275 25.1987 24.5758 25.4391 24.7413 25.5192L24.9895 25.6795C25.1551 25.7596 25.3206 25.8398 25.5689 25.9199C25.8171 26.0001 25.9826 26 26.1482 26L28.962 25.9199C29.2102 25.9199 29.4585 25.8398 29.624 25.7596C29.7895 25.6795 29.8723 25.5994 29.8723 25.4391C29.8723 25.359 29.8723 25.1987 29.8723 25.1185C29.7068 24.9583 29.7068 24.8781 29.7068 24.798Z" fill="#DDE0F0"/>
</svg>
