<svg width="48" height="48" viewBox="0 0 48 48" fill="none" xmlns="http://www.w3.org/2000/svg">
<path d="M24 46C36.1 46 46 36.1 46 24C46 11.9 36.1 2 24 2C11.9 2 2 11.9 2 24C2 36.1 11.9 46 24 46ZM24.66 13.638C25.1 13.242 25.628 13 26.2 13C26.794 13 27.3 13.242 27.762 13.638C28.18 14.1 28.4 14.628 28.4 15.2C28.4 15.794 28.18 16.3 27.762 16.762C27.3 17.18 26.794 17.4 26.2 17.4C25.628 17.4 25.1 17.18 24.66 16.762C24.242 16.3 24 15.794 24 15.2C24 14.628 24.242 14.1 24.66 13.638ZM19.16 23.934C19.16 23.934 23.934 20.15 25.672 19.996C27.3 19.864 26.97 21.734 26.816 22.702L26.794 22.834C26.486 24 26.112 25.408 25.738 26.75C24.902 29.808 24.088 32.8 24.286 33.35C24.506 34.098 25.87 33.152 26.86 32.492C26.992 32.404 27.102 32.316 27.212 32.25C27.212 32.25 27.388 32.074 27.564 32.316C27.608 32.382 27.652 32.448 27.696 32.492C27.894 32.8 28.004 32.91 27.74 33.086L27.652 33.13C27.168 33.46 25.1 34.912 24.264 35.44C23.362 36.034 19.908 38.014 20.436 34.164C20.898 31.458 21.514 29.126 21.998 27.3C22.9 24 23.296 22.504 21.272 23.802C20.458 24.286 19.974 24.594 19.688 24.792C19.446 24.968 19.424 24.968 19.27 24.682L19.204 24.55L19.094 24.374C18.94 24.154 18.94 24.132 19.16 23.934Z" fill="#DDE0F0"/>
</svg>
