<svg width="24" height="24" viewBox="0 0 24 24" fill="none" xmlns="http://www.w3.org/2000/svg">
<g clip-path="url(#clip0_3_246)">
<path d="M6.97345 14.4C6.63385 14.4 6.34899 14.2848 6.11887 14.0544C5.88874 13.824 5.77408 13.5392 5.77488 13.2C5.77488 12.86 5.88994 12.5748 6.12006 12.3444C6.35019 12.114 6.63465 11.9992 6.97345 12C7.31304 12 7.5979 12.1152 7.82803 12.3456C8.05815 12.576 8.17282 12.8608 8.17202 13.2C8.17202 13.54 8.05695 13.8252 7.82683 14.0556C7.5967 14.286 7.31224 14.4008 6.97345 14.4ZM11.7677 14.4C11.4281 14.4 11.1433 14.2848 10.9131 14.0544C10.683 13.824 10.5684 13.5392 10.5692 13.2C10.5692 12.86 10.6842 12.5748 10.9143 12.3444C11.1445 12.114 11.4289 11.9992 11.7677 12C12.1073 12 12.3922 12.1152 12.6223 12.3456C12.8524 12.576 12.9671 12.8608 12.9663 13.2C12.9663 13.54 12.8512 13.8252 12.6211 14.0556C12.391 14.286 12.1065 14.4008 11.7677 14.4ZM16.562 14.4C16.2224 14.4 15.9376 14.2848 15.7074 14.0544C15.4773 13.824 15.3626 13.5392 15.3634 13.2C15.3634 12.86 15.4785 12.5748 15.7086 12.3444C15.9388 12.114 16.2232 11.9992 16.562 12C16.9016 12 17.1865 12.1152 17.4166 12.3456C17.6467 12.576 17.7614 12.8608 17.7606 13.2C17.7606 13.54 17.6455 13.8252 17.4154 14.0556C17.1853 14.286 16.9008 14.4008 16.562 14.4ZM3.37773 24C2.71852 24 2.15399 23.7648 1.68415 23.2944C1.21431 22.824 0.979794 22.2592 0.980593 21.6V4.8C0.980593 4.14 1.21551 3.5748 1.68535 3.1044C2.15519 2.634 2.71932 2.3992 3.37773 2.4H4.5763V0H6.97345V2.4H16.562V0H18.9592V2.4H20.1577C20.8169 2.4 21.3815 2.6352 21.8513 3.1056C22.3211 3.576 22.5557 4.1408 22.5549 4.8V21.6C22.5549 22.26 22.3199 22.8252 21.8501 23.2956C21.3803 23.766 20.8161 24.0008 20.1577 24H3.37773ZM3.37773 21.6H20.1577V9.6H3.37773V21.6Z" fill="#7EA373"/>
</g>
<defs>
<clipPath id="clip0_3_246">
<rect width="23.5356" height="24" fill="white"/>
</clipPath>
</defs>
</svg>
