<svg width="657" height="340" viewBox="0 0 657 340" fill="none" xmlns="http://www.w3.org/2000/svg">
<g clip-path="url(#clip0_3_331)">
<path d="M180.554 12.314H144.754V64.3786H180.554V12.314Z" stroke="#1B2E3F" stroke-width="0.417171" stroke-miterlimit="10"/>
<path d="M144.755 12.314H108.955V64.3786H144.755V12.314Z" stroke="#1B2E3F" stroke-width="0.417171" stroke-miterlimit="10"/>
<path d="M108.956 12.314H73.1559V64.3786H108.956V12.314Z" stroke="#1B2E3F" stroke-width="0.417171" stroke-miterlimit="10"/>
<path d="M73.1861 12.314H37.3859V64.3786H73.1861V12.314Z" stroke="#1B2E3F" stroke-width="0.417171" stroke-miterlimit="10"/>
<path d="M37.3862 12.3137H1.58603V64.3783H37.3862V12.3137Z" stroke="#1B2E3F" stroke-width="0.417171" stroke-miterlimit="10"/>
<path d="M631.752 108.264H346.145V305.381H631.752V108.264Z" fill="#E7D8C9"/>
<path d="M345.665 108.264H128.097V305.381H345.665V108.264Z" fill="#B2967D"/>
<path d="M654.548 74.0381H180.529V108.264H654.548V74.0381Z" fill="#E6BEAE"/>
<path d="M203.326 108.48V305.381H238.586V108.48H203.326Z" fill="#E6BEAE"/>
<path d="M168.097 108.48V305.381H203.356V108.48H168.097Z" fill="#E7D8C9"/>
<path d="M512.301 24.628V73.8533H547.561V24.628H512.301Z" fill="#E6BEAE"/>
<path d="M441.784 24.597V73.8223H512.271V24.597L441.784 24.597Z" fill="#E7D8C9"/>
<path d="M239.509 143.726V168.354H309.997V143.726H239.509Z" fill="#1B2E3F"/>
<path d="M512.301 -0.031126V24.5969L547.561 24.5969V-0.031126L512.301 -0.031126Z" fill="#B2967D"/>
<path d="M441.813 -0.031126V24.5969L512.3 24.5969V-0.031126L441.813 -0.031126Z" fill="#1B2E3F"/>
<path d="M59.6477 108.48L59.6477 305.381H94.9074L94.9074 108.48H59.6477Z" fill="#E6BEAE"/>
<path d="M382.293 143.756V305.381H452.78V143.756H382.293Z" fill="#1B2E3F"/>
<path d="M239.509 171.47V305.381H309.997V171.47H239.509Z" fill="#1B2E3F"/>
<path d="M631.75 305.381H203.355V339.608H631.75V305.381Z" fill="#E7D8C9"/>
<path d="M180.529 74.0381H1.59184V108.264H180.529V74.0381Z" fill="#E7D8C9"/>
<path d="M24.3889 108.45L24.3889 305.351H59.6486L59.6486 108.45H24.3889Z" fill="#E7D8C9"/>
<path d="M203.326 305.381H24.3889V339.608H203.326V305.381Z" fill="#B2967D"/>
<path d="M654.545 12.314H559.735V64.3786H654.545V12.314Z" stroke="#B2967D" stroke-width="0.417171" stroke-miterlimit="10"/>
<path d="M559.738 12.314H464.928V64.3786H559.738V12.314Z" stroke="#B2967D" stroke-width="0.417171" stroke-miterlimit="10"/>
<path d="M464.959 12.314H370.149V64.3786H464.959V12.314Z" stroke="#B2967D" stroke-width="0.417171" stroke-miterlimit="10"/>
<path d="M370.145 12.314H275.335V64.3786H370.145V12.314Z" stroke="#B2967D" stroke-width="0.417171" stroke-miterlimit="10"/>
<path d="M275.339 12.3137H180.529V64.3783H275.339V12.3137Z" stroke="#B2967D" stroke-width="0.417171" stroke-miterlimit="10"/>
</g>
<defs>
<clipPath id="clip0_3_331">
<rect width="656.136" height="339.608" fill="white"/>
</clipPath>
</defs>
</svg>
